<?xml version="1.0" encoding="UTF-8" standalone="no"?>
<!DOCTYPE svg PUBLIC "-//W3C//DTD SVG 1.1//EN"
 "http://www.w3.org/Graphics/SVG/1.1/DTD/svg11.dtd">
<!-- Generated by graphviz version 2.50.0 (20211204.2007)
 -->
<!-- Pages: 1 -->
<svg width="1920pt" height="980pt"
 viewBox="0.00 0.00 1920.32 980.00" xmlns="http://www.w3.org/2000/svg" xmlns:xlink="http://www.w3.org/1999/xlink">
<g id="graph0" class="graph" transform="scale(1 1) rotate(0) translate(4 976)">
<polygon fill="white" stroke="transparent" points="-4,4 -4,-976 1916.32,-976 1916.32,4 -4,4"/>
<!-- broadcaster -->
<g id="node1" class="node">
<title>broadcaster</title>
<polygon fill="none" stroke="black" points="937.5,-972 858.5,-972 858.5,-936 937.5,-936 937.5,-972"/>
<text text-anchor="middle" x="898" y="-950.3" font-family="Times,serif" font-size="14.00">broadcaster</text>
</g>
<!-- fm -->
<g id="node18" class="node">
<title>fm</title>
<ellipse fill="none" stroke="black" cx="271" cy="-882" rx="27" ry="18"/>
<text text-anchor="middle" x="271" y="-878.3" font-family="Times,serif" font-size="14.00">fm</text>
</g>
<!-- broadcaster&#45;&gt;fm -->
<g id="edge78" class="edge">
<title>broadcaster&#45;&gt;fm</title>
<path fill="none" stroke="black" d="M858.3,-948.57C744.46,-935.86 417.97,-899.41 307.81,-887.11"/>
<polygon fill="black" stroke="black" points="307.87,-883.59 297.54,-885.96 307.09,-890.55 307.87,-883.59"/>
</g>
<!-- hv -->
<g id="node22" class="node">
<title>hv</title>
<ellipse fill="none" stroke="black" cx="653" cy="-882" rx="27" ry="18"/>
<text text-anchor="middle" x="653" y="-878.3" font-family="Times,serif" font-size="14.00">hv</text>
</g>
<!-- broadcaster&#45;&gt;hv -->
<g id="edge79" class="edge">
<title>broadcaster&#45;&gt;hv</title>
<path fill="none" stroke="black" d="M858.36,-941.68C810.87,-928.11 732.09,-905.6 687.17,-892.76"/>
<polygon fill="black" stroke="black" points="687.89,-889.33 677.32,-889.95 685.97,-896.06 687.89,-889.33"/>
</g>
<!-- kc -->
<g id="node42" class="node">
<title>kc</title>
<ellipse fill="none" stroke="black" cx="1143" cy="-882" rx="27" ry="18"/>
<text text-anchor="middle" x="1143" y="-878.3" font-family="Times,serif" font-size="14.00">kc</text>
</g>
<!-- broadcaster&#45;&gt;kc -->
<g id="edge80" class="edge">
<title>broadcaster&#45;&gt;kc</title>
<path fill="none" stroke="black" d="M937.64,-941.68C985.13,-928.11 1063.91,-905.6 1108.83,-892.76"/>
<polygon fill="black" stroke="black" points="1110.03,-896.06 1118.68,-889.95 1108.11,-889.33 1110.03,-896.06"/>
</g>
<!-- bv -->
<g id="node58" class="node">
<title>bv</title>
<ellipse fill="none" stroke="black" cx="1667" cy="-882" rx="27" ry="18"/>
<text text-anchor="middle" x="1667" y="-878.3" font-family="Times,serif" font-size="14.00">bv</text>
</g>
<!-- broadcaster&#45;&gt;bv -->
<g id="edge81" class="edge">
<title>broadcaster&#45;&gt;bv</title>
<path fill="none" stroke="black" d="M937.73,-949.38C1071,-937.25 1501.04,-898.11 1630.07,-886.36"/>
<polygon fill="black" stroke="black" points="1630.58,-889.83 1640.22,-885.44 1629.95,-882.86 1630.58,-889.83"/>
</g>
<!-- rp -->
<g id="node2" class="node">
<title>rp</title>
<ellipse fill="none" stroke="black" cx="1103" cy="-378" rx="27" ry="18"/>
<text text-anchor="middle" x="1103" y="-374.3" font-family="Times,serif" font-size="14.00">rp</text>
</g>
<!-- gq -->
<g id="node3" class="node">
<title>gq</title>
<ellipse fill="none" stroke="black" cx="1065" cy="-306" rx="27" ry="18"/>
<text text-anchor="middle" x="1065" y="-302.3" font-family="Times,serif" font-size="14.00">gq</text>
</g>
<!-- rp&#45;&gt;gq -->
<g id="edge1" class="edge">
<title>rp&#45;&gt;gq</title>
<path fill="none" stroke="black" d="M1094.19,-360.76C1089.58,-352.28 1083.84,-341.71 1078.68,-332.2"/>
<polygon fill="black" stroke="black" points="1081.61,-330.27 1073.77,-323.15 1075.46,-333.61 1081.61,-330.27"/>
</g>
<!-- sd -->
<g id="node4" class="node">
<title>sd</title>
<ellipse fill="none" stroke="black" cx="1143" cy="-810" rx="27" ry="18"/>
<text text-anchor="middle" x="1143" y="-806.3" font-family="Times,serif" font-size="14.00">sd</text>
</g>
<!-- rp&#45;&gt;sd -->
<g id="edge2" class="edge">
<title>rp&#45;&gt;sd</title>
<path fill="none" stroke="black" d="M1099.64,-395.97C1094.69,-422.52 1086,-475.56 1086,-521 1086,-667 1086,-667 1086,-667 1086,-710.91 1109.77,-757.33 1126.61,-784.7"/>
<polygon fill="black" stroke="black" points="1123.7,-786.65 1132.01,-793.22 1129.61,-782.9 1123.7,-786.65"/>
</g>
<!-- dp -->
<g id="node35" class="node">
<title>dp</title>
<ellipse fill="none" stroke="black" cx="1046" cy="-234" rx="27" ry="18"/>
<text text-anchor="middle" x="1046" y="-230.3" font-family="Times,serif" font-size="14.00">dp</text>
</g>
<!-- gq&#45;&gt;dp -->
<g id="edge102" class="edge">
<title>gq&#45;&gt;dp</title>
<path fill="none" stroke="black" d="M1060.4,-288.05C1058.25,-280.14 1055.65,-270.54 1053.24,-261.69"/>
<polygon fill="black" stroke="black" points="1056.55,-260.52 1050.56,-251.79 1049.8,-262.36 1056.55,-260.52"/>
</g>
<!-- sd&#45;&gt;gq -->
<g id="edge106" class="edge">
<title>sd&#45;&gt;gq</title>
<path fill="none" stroke="black" d="M1126.02,-795.7C1098.69,-772.67 1048,-722.47 1048,-667 1048,-667 1048,-667 1048,-449 1048,-408.71 1054.83,-362.44 1059.83,-333.96"/>
<polygon fill="black" stroke="black" points="1063.3,-334.43 1061.64,-323.97 1056.42,-333.19 1063.3,-334.43"/>
</g>
<!-- lz -->
<g id="node37" class="node">
<title>lz</title>
<ellipse fill="none" stroke="black" cx="917" cy="-666" rx="27" ry="18"/>
<text text-anchor="middle" x="917" y="-662.3" font-family="Times,serif" font-size="14.00">lz</text>
</g>
<!-- sd&#45;&gt;lz -->
<g id="edge107" class="edge">
<title>sd&#45;&gt;lz</title>
<path fill="none" stroke="black" d="M1115.83,-808.11C1076.56,-805.45 1003.64,-795.16 958,-756 939.31,-739.96 928.65,-713.6 922.91,-693.72"/>
<polygon fill="black" stroke="black" points="926.28,-692.78 920.34,-684.01 919.51,-694.57 926.28,-692.78"/>
</g>
<!-- sd&#45;&gt;kc -->
<g id="edge108" class="edge">
<title>sd&#45;&gt;kc</title>
<path fill="none" stroke="black" d="M1148.88,-827.96C1149.71,-835.83 1149.95,-845.37 1149.58,-854.19"/>
<polygon fill="black" stroke="black" points="1146.07,-854.18 1148.84,-864.41 1153.06,-854.69 1146.07,-854.18"/>
</g>
<!-- kf -->
<g id="node43" class="node">
<title>kf</title>
<ellipse fill="none" stroke="black" cx="1331" cy="-738" rx="27" ry="18"/>
<text text-anchor="middle" x="1331" y="-734.3" font-family="Times,serif" font-size="14.00">kf</text>
</g>
<!-- sd&#45;&gt;kf -->
<g id="edge105" class="edge">
<title>sd&#45;&gt;kf</title>
<path fill="none" stroke="black" d="M1166.55,-800.89C1195.68,-790.77 1246.74,-772.76 1290,-756 1292.92,-754.87 1295.95,-753.67 1298.98,-752.45"/>
<polygon fill="black" stroke="black" points="1300.59,-755.57 1308.52,-748.54 1297.94,-749.09 1300.59,-755.57"/>
</g>
<!-- zk -->
<g id="node46" class="node">
<title>zk</title>
<ellipse fill="none" stroke="black" cx="1141" cy="-450" rx="27" ry="18"/>
<text text-anchor="middle" x="1141" y="-446.3" font-family="Times,serif" font-size="14.00">zk</text>
</g>
<!-- sd&#45;&gt;zk -->
<g id="edge104" class="edge">
<title>sd&#45;&gt;zk</title>
<path fill="none" stroke="black" d="M1139.25,-792.05C1133.71,-765.52 1124,-712.52 1124,-667 1124,-667 1124,-667 1124,-593 1124,-552.71 1130.83,-506.44 1135.83,-477.96"/>
<polygon fill="black" stroke="black" points="1139.3,-478.43 1137.64,-467.97 1132.42,-477.19 1139.3,-478.43"/>
</g>
<!-- vf -->
<g id="node47" class="node">
<title>vf</title>
<ellipse fill="none" stroke="black" cx="1179" cy="-522" rx="27" ry="18"/>
<text text-anchor="middle" x="1179" y="-518.3" font-family="Times,serif" font-size="14.00">vf</text>
</g>
<!-- sd&#45;&gt;vf -->
<g id="edge109" class="edge">
<title>sd&#45;&gt;vf</title>
<path fill="none" stroke="black" d="M1145.14,-791.97C1151.16,-744.18 1168.23,-608.54 1175.57,-550.22"/>
<polygon fill="black" stroke="black" points="1179.09,-550.3 1176.87,-539.94 1172.15,-549.43 1179.09,-550.3"/>
</g>
<!-- kh -->
<g id="node5" class="node">
<title>kh</title>
<ellipse fill="none" stroke="black" cx="879" cy="-594" rx="27" ry="18"/>
<text text-anchor="middle" x="879" y="-590.3" font-family="Times,serif" font-size="14.00">kh</text>
</g>
<!-- cs -->
<g id="node6" class="node">
<title>cs</title>
<ellipse fill="none" stroke="black" cx="898" cy="-450" rx="27" ry="18"/>
<text text-anchor="middle" x="898" y="-446.3" font-family="Times,serif" font-size="14.00">cs</text>
</g>
<!-- kh&#45;&gt;cs -->
<g id="edge3" class="edge">
<title>kh&#45;&gt;cs</title>
<path fill="none" stroke="black" d="M881.29,-575.87C884.53,-551.67 890.48,-507.21 894.33,-478.39"/>
<polygon fill="black" stroke="black" points="897.84,-478.57 895.7,-468.19 890.9,-477.64 897.84,-478.57"/>
</g>
<!-- rx -->
<g id="node59" class="node">
<title>rx</title>
<ellipse fill="none" stroke="black" cx="898" cy="-378" rx="27" ry="18"/>
<text text-anchor="middle" x="898" y="-374.3" font-family="Times,serif" font-size="14.00">rx</text>
</g>
<!-- cs&#45;&gt;rx -->
<g id="edge101" class="edge">
<title>cs&#45;&gt;rx</title>
<path fill="none" stroke="black" d="M898,-431.7C898,-423.98 898,-414.71 898,-406.11"/>
<polygon fill="black" stroke="black" points="901.5,-406.1 898,-396.1 894.5,-406.1 901.5,-406.1"/>
</g>
<!-- jz -->
<g id="node7" class="node">
<title>jz</title>
<ellipse fill="none" stroke="black" cx="1608" cy="-162" rx="27" ry="18"/>
<text text-anchor="middle" x="1608" y="-158.3" font-family="Times,serif" font-size="14.00">jz</text>
</g>
<!-- pl -->
<g id="node8" class="node">
<title>pl</title>
<ellipse fill="none" stroke="black" cx="1667" cy="-810" rx="27" ry="18"/>
<text text-anchor="middle" x="1667" y="-806.3" font-family="Times,serif" font-size="14.00">pl</text>
</g>
<!-- jz&#45;&gt;pl -->
<g id="edge4" class="edge">
<title>jz&#45;&gt;pl</title>
<path fill="none" stroke="black" d="M1635.07,-163.37C1709.19,-165.94 1910,-184.06 1910,-305 1910,-667 1910,-667 1910,-667 1910,-707.45 1919.28,-727.09 1891,-756 1865.22,-782.36 1760.23,-798.25 1703.61,-805.08"/>
<polygon fill="black" stroke="black" points="1703.16,-801.6 1693.63,-806.24 1703.97,-808.56 1703.16,-801.6"/>
</g>
<!-- jb -->
<g id="node9" class="node">
<title>jb</title>
<ellipse fill="none" stroke="black" cx="1551" cy="-90" rx="27" ry="18"/>
<text text-anchor="middle" x="1551" y="-86.3" font-family="Times,serif" font-size="14.00">jb</text>
</g>
<!-- jz&#45;&gt;jb -->
<g id="edge5" class="edge">
<title>jz&#45;&gt;jb</title>
<path fill="none" stroke="black" d="M1595.63,-145.81C1588.09,-136.55 1578.3,-124.52 1569.81,-114.09"/>
<polygon fill="black" stroke="black" points="1572.37,-111.7 1563.34,-106.16 1566.94,-116.12 1572.37,-111.7"/>
</g>
<!-- tc -->
<g id="node30" class="node">
<title>tc</title>
<ellipse fill="none" stroke="black" cx="1608" cy="-234" rx="27" ry="18"/>
<text text-anchor="middle" x="1608" y="-230.3" font-family="Times,serif" font-size="14.00">tc</text>
</g>
<!-- pl&#45;&gt;tc -->
<g id="edge94" class="edge">
<title>pl&#45;&gt;tc</title>
<path fill="none" stroke="black" d="M1650.02,-795.7C1622.69,-772.67 1572,-722.47 1572,-667 1572,-667 1572,-667 1572,-377 1572,-335.55 1586.59,-289.32 1597.2,-261.2"/>
<polygon fill="black" stroke="black" points="1600.53,-262.29 1600.89,-251.7 1594,-259.75 1600.53,-262.29"/>
</g>
<!-- bs -->
<g id="node40" class="node">
<title>bs</title>
<ellipse fill="none" stroke="black" cx="1731" cy="-378" rx="27" ry="18"/>
<text text-anchor="middle" x="1731" y="-374.3" font-family="Times,serif" font-size="14.00">bs</text>
</g>
<!-- pl&#45;&gt;bs -->
<g id="edge92" class="edge">
<title>pl&#45;&gt;bs</title>
<path fill="none" stroke="black" d="M1689.44,-799.8C1709.85,-790.7 1740.04,-775.36 1762,-756 1820.8,-704.16 1834,-673.38 1834,-595 1834,-595 1834,-595 1834,-521 1834,-468.66 1787.59,-422.61 1757.07,-397.98"/>
<polygon fill="black" stroke="black" points="1758.97,-395.02 1748.94,-391.62 1754.66,-400.53 1758.97,-395.02"/>
</g>
<!-- fk -->
<g id="node51" class="node">
<title>fk</title>
<ellipse fill="none" stroke="black" cx="1779" cy="-666" rx="27" ry="18"/>
<text text-anchor="middle" x="1779" y="-662.3" font-family="Times,serif" font-size="14.00">fk</text>
</g>
<!-- pl&#45;&gt;fk -->
<g id="edge90" class="edge">
<title>pl&#45;&gt;fk</title>
<path fill="none" stroke="black" d="M1687.23,-797.72C1702.76,-788.24 1723.87,-773.45 1738,-756 1753.08,-737.37 1763.98,-712.29 1770.74,-693.5"/>
<polygon fill="black" stroke="black" points="1774.13,-694.38 1774.06,-683.79 1767.51,-692.11 1774.13,-694.38"/>
</g>
<!-- ct -->
<g id="node53" class="node">
<title>ct</title>
<ellipse fill="none" stroke="black" cx="1855" cy="-738" rx="27" ry="18"/>
<text text-anchor="middle" x="1855" y="-734.3" font-family="Times,serif" font-size="14.00">ct</text>
</g>
<!-- pl&#45;&gt;ct -->
<g id="edge91" class="edge">
<title>pl&#45;&gt;ct</title>
<path fill="none" stroke="black" d="M1690.55,-800.89C1719.68,-790.77 1770.74,-772.76 1814,-756 1816.92,-754.87 1819.95,-753.67 1822.98,-752.45"/>
<polygon fill="black" stroke="black" points="1824.59,-755.57 1832.52,-748.54 1821.94,-749.09 1824.59,-755.57"/>
</g>
<!-- tg -->
<g id="node55" class="node">
<title>tg</title>
<ellipse fill="none" stroke="black" cx="1403" cy="-738" rx="27" ry="18"/>
<text text-anchor="middle" x="1403" y="-734.3" font-family="Times,serif" font-size="14.00">tg</text>
</g>
<!-- pl&#45;&gt;tg -->
<g id="edge93" class="edge">
<title>pl&#45;&gt;tg</title>
<path fill="none" stroke="black" d="M1642.16,-802.41C1594.77,-789.85 1491.37,-762.43 1437.37,-748.11"/>
<polygon fill="black" stroke="black" points="1438.14,-744.7 1427.58,-745.52 1436.35,-751.46 1438.14,-744.7"/>
</g>
<!-- pl&#45;&gt;bv -->
<g id="edge89" class="edge">
<title>pl&#45;&gt;bv</title>
<path fill="none" stroke="black" d="M1672.88,-827.96C1673.71,-835.83 1673.95,-845.37 1673.58,-854.19"/>
<polygon fill="black" stroke="black" points="1670.07,-854.18 1672.84,-864.41 1677.06,-854.69 1670.07,-854.18"/>
</g>
<!-- jb&#45;&gt;pl -->
<g id="edge40" class="edge">
<title>jb&#45;&gt;pl</title>
<path fill="none" stroke="black" d="M1547.64,-107.97C1542.69,-134.52 1534,-187.56 1534,-233 1534,-667 1534,-667 1534,-667 1534,-726.73 1597.45,-771.69 1636.7,-793.79"/>
<polygon fill="black" stroke="black" points="1635.18,-796.95 1645.63,-798.66 1638.53,-790.8 1635.18,-796.95"/>
</g>
<!-- bf -->
<g id="node38" class="node">
<title>bf</title>
<ellipse fill="none" stroke="black" cx="1523" cy="-18" rx="27" ry="18"/>
<text text-anchor="middle" x="1523" y="-14.3" font-family="Times,serif" font-size="14.00">bf</text>
</g>
<!-- jb&#45;&gt;bf -->
<g id="edge39" class="edge">
<title>jb&#45;&gt;bf</title>
<path fill="none" stroke="black" d="M1544.36,-72.41C1541.09,-64.22 1537.06,-54.14 1533.38,-44.95"/>
<polygon fill="black" stroke="black" points="1536.55,-43.45 1529.59,-35.47 1530.05,-46.05 1536.55,-43.45"/>
</g>
<!-- dx -->
<g id="node10" class="node">
<title>dx</title>
<ellipse fill="none" stroke="black" cx="207" cy="-810" rx="27" ry="18"/>
<text text-anchor="middle" x="207" y="-806.3" font-family="Times,serif" font-size="14.00">dx</text>
</g>
<!-- tx -->
<g id="node11" class="node">
<title>tx</title>
<ellipse fill="none" stroke="black" cx="169" cy="-738" rx="27" ry="18"/>
<text text-anchor="middle" x="169" y="-734.3" font-family="Times,serif" font-size="14.00">tx</text>
</g>
<!-- dx&#45;&gt;tx -->
<g id="edge6" class="edge">
<title>dx&#45;&gt;tx</title>
<path fill="none" stroke="black" d="M198.19,-792.76C193.58,-784.28 187.84,-773.71 182.68,-764.2"/>
<polygon fill="black" stroke="black" points="185.61,-762.27 177.77,-755.15 179.46,-765.61 185.61,-762.27"/>
</g>
<!-- zv -->
<g id="node14" class="node">
<title>zv</title>
<ellipse fill="none" stroke="black" cx="205" cy="-594" rx="27" ry="18"/>
<text text-anchor="middle" x="205" y="-590.3" font-family="Times,serif" font-size="14.00">zv</text>
</g>
<!-- tx&#45;&gt;zv -->
<g id="edge69" class="edge">
<title>tx&#45;&gt;zv</title>
<path fill="none" stroke="black" d="M173.27,-720.15C179.44,-695.81 190.91,-650.57 198.24,-621.67"/>
<polygon fill="black" stroke="black" points="201.67,-622.38 200.73,-611.82 194.88,-620.66 201.67,-622.38"/>
</g>
<!-- cm -->
<g id="node56" class="node">
<title>cm</title>
<ellipse fill="none" stroke="black" cx="131" cy="-666" rx="27" ry="18"/>
<text text-anchor="middle" x="131" y="-662.3" font-family="Times,serif" font-size="14.00">cm</text>
</g>
<!-- tx&#45;&gt;cm -->
<g id="edge68" class="edge">
<title>tx&#45;&gt;cm</title>
<path fill="none" stroke="black" d="M160.19,-720.76C155.58,-712.28 149.84,-701.71 144.68,-692.2"/>
<polygon fill="black" stroke="black" points="147.61,-690.27 139.77,-683.15 141.46,-693.61 147.61,-690.27"/>
</g>
<!-- dh -->
<g id="node12" class="node">
<title>dh</title>
<ellipse fill="none" stroke="black" cx="1255" cy="-666" rx="27" ry="18"/>
<text text-anchor="middle" x="1255" y="-662.3" font-family="Times,serif" font-size="14.00">dh</text>
</g>
<!-- dh&#45;&gt;sd -->
<g id="edge8" class="edge">
<title>dh&#45;&gt;sd</title>
<path fill="none" stroke="black" d="M1250.06,-683.79C1243.88,-702.77 1231.88,-733.92 1214,-756 1202.41,-770.32 1186.12,-782.84 1172.07,-792.11"/>
<polygon fill="black" stroke="black" points="1169.8,-789.41 1163.23,-797.72 1173.55,-795.32 1169.8,-789.41"/>
</g>
<!-- bm -->
<g id="node13" class="node">
<title>bm</title>
<ellipse fill="none" stroke="black" cx="1217" cy="-594" rx="27" ry="18"/>
<text text-anchor="middle" x="1217" y="-590.3" font-family="Times,serif" font-size="14.00">bm</text>
</g>
<!-- dh&#45;&gt;bm -->
<g id="edge7" class="edge">
<title>dh&#45;&gt;bm</title>
<path fill="none" stroke="black" d="M1246.19,-648.76C1241.58,-640.28 1235.84,-629.71 1230.68,-620.2"/>
<polygon fill="black" stroke="black" points="1233.61,-618.27 1225.77,-611.15 1227.46,-621.61 1233.61,-618.27"/>
</g>
<!-- bm&#45;&gt;sd -->
<g id="edge58" class="edge">
<title>bm&#45;&gt;sd</title>
<path fill="none" stroke="black" d="M1214.44,-612.01C1209.54,-642 1197.39,-705.86 1176,-756 1171.77,-765.92 1165.85,-776.13 1160.18,-784.91"/>
<polygon fill="black" stroke="black" points="1157.11,-783.21 1154.46,-793.46 1162.93,-787.1 1157.11,-783.21"/>
</g>
<!-- bm&#45;&gt;vf -->
<g id="edge57" class="edge">
<title>bm&#45;&gt;vf</title>
<path fill="none" stroke="black" d="M1208.19,-576.76C1203.58,-568.28 1197.84,-557.71 1192.68,-548.2"/>
<polygon fill="black" stroke="black" points="1195.61,-546.27 1187.77,-539.15 1189.46,-549.61 1195.61,-546.27"/>
</g>
<!-- zv&#45;&gt;dx -->
<g id="edge10" class="edge">
<title>zv&#45;&gt;dx</title>
<path fill="none" stroke="black" d="M205.16,-612.23C205.51,-649.32 206.33,-736.98 206.74,-781.71"/>
<polygon fill="black" stroke="black" points="203.25,-781.88 206.84,-791.85 210.25,-781.82 203.25,-781.88"/>
</g>
<!-- ns -->
<g id="node15" class="node">
<title>ns</title>
<ellipse fill="none" stroke="black" cx="207" cy="-378" rx="27" ry="18"/>
<text text-anchor="middle" x="207" y="-374.3" font-family="Times,serif" font-size="14.00">ns</text>
</g>
<!-- zv&#45;&gt;ns -->
<g id="edge9" class="edge">
<title>zv&#45;&gt;ns</title>
<path fill="none" stroke="black" d="M205.16,-575.85C205.51,-538.83 206.33,-451.18 206.74,-406.39"/>
<polygon fill="black" stroke="black" points="210.25,-406.26 206.84,-396.23 203.25,-406.2 210.25,-406.26"/>
</g>
<!-- hl -->
<g id="node16" class="node">
<title>hl</title>
<ellipse fill="none" stroke="black" cx="131" cy="-522" rx="27" ry="18"/>
<text text-anchor="middle" x="131" y="-518.3" font-family="Times,serif" font-size="14.00">hl</text>
</g>
<!-- zv&#45;&gt;hl -->
<g id="edge11" class="edge">
<title>zv&#45;&gt;hl</title>
<path fill="none" stroke="black" d="M190.02,-578.83C179.49,-568.87 165.22,-555.37 153.34,-544.14"/>
<polygon fill="black" stroke="black" points="155.62,-541.47 145.95,-537.14 150.81,-546.56 155.62,-541.47"/>
</g>
<!-- hn -->
<g id="node17" class="node">
<title>hn</title>
<ellipse fill="none" stroke="black" cx="355" cy="-522" rx="27" ry="18"/>
<text text-anchor="middle" x="355" y="-518.3" font-family="Times,serif" font-size="14.00">hn</text>
</g>
<!-- zv&#45;&gt;hn -->
<g id="edge12" class="edge">
<title>zv&#45;&gt;hn</title>
<path fill="none" stroke="black" d="M226.49,-582.97C252.11,-571.02 295.11,-550.95 324.24,-537.35"/>
<polygon fill="black" stroke="black" points="325.97,-540.41 333.55,-533.01 323.01,-534.07 325.97,-540.41"/>
</g>
<!-- zv&#45;&gt;fm -->
<g id="edge13" class="edge">
<title>zv&#45;&gt;fm</title>
<path fill="none" stroke="black" d="M217.17,-610.24C221.68,-620.8 225.79,-635.2 229,-648 247.57,-722.06 265.84,-810.3 271.26,-853.88"/>
<polygon fill="black" stroke="black" points="267.79,-854.4 272.35,-863.96 274.75,-853.64 267.79,-854.4"/>
</g>
<!-- db -->
<g id="node24" class="node">
<title>db</title>
<ellipse fill="none" stroke="black" cx="226" cy="-306" rx="27" ry="18"/>
<text text-anchor="middle" x="226" y="-302.3" font-family="Times,serif" font-size="14.00">db</text>
</g>
<!-- ns&#45;&gt;db -->
<g id="edge75" class="edge">
<title>ns&#45;&gt;db</title>
<path fill="none" stroke="black" d="M211.6,-360.05C213.75,-352.14 216.35,-342.54 218.76,-333.69"/>
<polygon fill="black" stroke="black" points="222.2,-334.36 221.44,-323.79 215.45,-332.52 222.2,-334.36"/>
</g>
<!-- gr -->
<g id="node41" class="node">
<title>gr</title>
<ellipse fill="none" stroke="black" cx="169" cy="-450" rx="27" ry="18"/>
<text text-anchor="middle" x="169" y="-446.3" font-family="Times,serif" font-size="14.00">gr</text>
</g>
<!-- hl&#45;&gt;gr -->
<g id="edge100" class="edge">
<title>hl&#45;&gt;gr</title>
<path fill="none" stroke="black" d="M139.81,-504.76C144.42,-496.28 150.16,-485.71 155.32,-476.2"/>
<polygon fill="black" stroke="black" points="158.54,-477.61 160.23,-467.15 152.39,-474.27 158.54,-477.61"/>
</g>
<!-- hn&#45;&gt;cs -->
<g id="edge82" class="edge">
<title>hn&#45;&gt;cs</title>
<path fill="none" stroke="black" d="M381.19,-517.62C469.89,-506.19 759.11,-468.9 861.59,-455.69"/>
<polygon fill="black" stroke="black" points="862.29,-459.13 871.76,-454.38 861.39,-452.19 862.29,-459.13"/>
</g>
<!-- fm&#45;&gt;dx -->
<g id="edge32" class="edge">
<title>fm&#45;&gt;dx</title>
<path fill="none" stroke="black" d="M257.43,-866.15C248.69,-856.6 237.17,-843.99 227.34,-833.25"/>
<polygon fill="black" stroke="black" points="229.88,-830.84 220.55,-825.82 224.72,-835.57 229.88,-830.84"/>
</g>
<!-- fm&#45;&gt;zv -->
<g id="edge33" class="edge">
<title>fm&#45;&gt;zv</title>
<path fill="none" stroke="black" d="M263.11,-864.54C251.14,-826.33 231.24,-728.73 211,-648 208.87,-639.52 206.35,-630.34 204.4,-622.04"/>
<polygon fill="black" stroke="black" points="207.8,-621.18 202.31,-612.12 200.95,-622.62 207.8,-621.18"/>
</g>
<!-- xb -->
<g id="node19" class="node">
<title>xb</title>
<ellipse fill="none" stroke="black" cx="750" cy="-162" rx="27" ry="18"/>
<text text-anchor="middle" x="750" y="-158.3" font-family="Times,serif" font-size="14.00">xb</text>
</g>
<!-- ds -->
<g id="node20" class="node">
<title>ds</title>
<ellipse fill="none" stroke="black" cx="465" cy="-90" rx="27" ry="18"/>
<text text-anchor="middle" x="465" y="-86.3" font-family="Times,serif" font-size="14.00">ds</text>
</g>
<!-- xb&#45;&gt;ds -->
<g id="edge14" class="edge">
<title>xb&#45;&gt;ds</title>
<path fill="none" stroke="black" d="M724.71,-154.79C673.56,-142.23 557.77,-113.79 499.65,-99.51"/>
<polygon fill="black" stroke="black" points="500.37,-96.08 489.83,-97.1 498.7,-102.88 500.37,-96.08"/>
</g>
<!-- sk -->
<g id="node21" class="node">
<title>sk</title>
<ellipse fill="none" stroke="black" cx="653" cy="-810" rx="27" ry="18"/>
<text text-anchor="middle" x="653" y="-806.3" font-family="Times,serif" font-size="14.00">sk</text>
</g>
<!-- xb&#45;&gt;sk -->
<g id="edge15" class="edge">
<title>xb&#45;&gt;sk</title>
<path fill="none" stroke="black" d="M763.92,-177.84C785.35,-202.32 824,-253.57 824,-305 824,-667 824,-667 824,-667 824,-737.58 736.71,-779.79 686.87,-798.14"/>
<polygon fill="black" stroke="black" points="685.39,-794.95 677.14,-801.6 687.73,-801.55 685.39,-794.95"/>
</g>
<!-- ds&#45;&gt;sk -->
<g id="edge60" class="edge">
<title>ds&#45;&gt;sk</title>
<path fill="none" stroke="black" d="M461.64,-107.97C456.69,-134.52 448,-187.56 448,-233 448,-667 448,-667 448,-667 448,-709.34 451.11,-727.04 482,-756 518.79,-790.49 577.63,-802.55 615.8,-806.76"/>
<polygon fill="black" stroke="black" points="615.68,-810.27 625.98,-807.75 616.36,-803.3 615.68,-810.27"/>
</g>
<!-- kz -->
<g id="node39" class="node">
<title>kz</title>
<ellipse fill="none" stroke="black" cx="438" cy="-18" rx="27" ry="18"/>
<text text-anchor="middle" x="438" y="-14.3" font-family="Times,serif" font-size="14.00">kz</text>
</g>
<!-- ds&#45;&gt;kz -->
<g id="edge59" class="edge">
<title>ds&#45;&gt;kz</title>
<path fill="none" stroke="black" d="M458.6,-72.41C455.49,-64.34 451.67,-54.43 448.17,-45.35"/>
<polygon fill="black" stroke="black" points="451.4,-44.03 444.54,-35.96 444.87,-46.55 451.4,-44.03"/>
</g>
<!-- sk&#45;&gt;kh -->
<g id="edge24" class="edge">
<title>sk&#45;&gt;kh</title>
<path fill="none" stroke="black" d="M680.15,-809.2C720.42,-807.96 795.76,-799.51 838,-756 873.14,-719.8 879.4,-657.91 879.84,-622.33"/>
<polygon fill="black" stroke="black" points="883.34,-622.19 879.82,-612.2 876.34,-622.2 883.34,-622.19"/>
</g>
<!-- sk&#45;&gt;hv -->
<g id="edge22" class="edge">
<title>sk&#45;&gt;hv</title>
<path fill="none" stroke="black" d="M658.88,-827.96C659.71,-835.83 659.95,-845.37 659.58,-854.19"/>
<polygon fill="black" stroke="black" points="656.07,-854.18 658.84,-864.41 663.06,-854.69 656.07,-854.18"/>
</g>
<!-- kr -->
<g id="node23" class="node">
<title>kr</title>
<ellipse fill="none" stroke="black" cx="541" cy="-738" rx="27" ry="18"/>
<text text-anchor="middle" x="541" y="-734.3" font-family="Times,serif" font-size="14.00">kr</text>
</g>
<!-- sk&#45;&gt;kr -->
<g id="edge23" class="edge">
<title>sk&#45;&gt;kr</title>
<path fill="none" stroke="black" d="M634,-797.13C616.06,-785.91 588.95,-768.97 568.62,-756.26"/>
<polygon fill="black" stroke="black" points="570.43,-753.26 560.09,-750.93 566.72,-759.2 570.43,-753.26"/>
</g>
<!-- rg -->
<g id="node26" class="node">
<title>rg</title>
<ellipse fill="none" stroke="black" cx="579" cy="-666" rx="27" ry="18"/>
<text text-anchor="middle" x="579" y="-662.3" font-family="Times,serif" font-size="14.00">rg</text>
</g>
<!-- sk&#45;&gt;rg -->
<g id="edge20" class="edge">
<title>sk&#45;&gt;rg</title>
<path fill="none" stroke="black" d="M642.35,-793.07C635.61,-782.71 626.89,-768.79 620,-756 608.83,-735.28 597.76,-710.95 589.94,-692.98"/>
<polygon fill="black" stroke="black" points="593.12,-691.51 585.95,-683.71 586.69,-694.27 593.12,-691.51"/>
</g>
<!-- hh -->
<g id="node27" class="node">
<title>hh</title>
<ellipse fill="none" stroke="black" cx="731" cy="-306" rx="27" ry="18"/>
<text text-anchor="middle" x="731" y="-302.3" font-family="Times,serif" font-size="14.00">hh</text>
</g>
<!-- sk&#45;&gt;hh -->
<g id="edge21" class="edge">
<title>sk&#45;&gt;hh</title>
<path fill="none" stroke="black" d="M669.98,-795.7C697.31,-772.67 748,-722.47 748,-667 748,-667 748,-667 748,-449 748,-408.71 741.17,-362.44 736.17,-333.96"/>
<polygon fill="black" stroke="black" points="739.58,-333.19 734.36,-323.97 732.7,-334.43 739.58,-333.19"/>
</g>
<!-- zl -->
<g id="node28" class="node">
<title>zl</title>
<ellipse fill="none" stroke="black" cx="674" cy="-378" rx="27" ry="18"/>
<text text-anchor="middle" x="674" y="-374.3" font-family="Times,serif" font-size="14.00">zl</text>
</g>
<!-- sk&#45;&gt;zl -->
<g id="edge25" class="edge">
<title>sk&#45;&gt;zl</title>
<path fill="none" stroke="black" d="M626.22,-807.11C592.74,-803.25 536.08,-791.54 505,-756 478.37,-725.56 486,-707.45 486,-667 486,-667 486,-667 486,-521 486,-445.11 584.76,-404.63 639.12,-388.1"/>
<polygon fill="black" stroke="black" points="640.42,-391.37 649.04,-385.2 638.45,-384.65 640.42,-391.37"/>
</g>
<!-- zn -->
<g id="node29" class="node">
<title>zn</title>
<ellipse fill="none" stroke="black" cx="617" cy="-594" rx="27" ry="18"/>
<text text-anchor="middle" x="617" y="-590.3" font-family="Times,serif" font-size="14.00">zn</text>
</g>
<!-- sk&#45;&gt;zn -->
<g id="edge26" class="edge">
<title>sk&#45;&gt;zn</title>
<path fill="none" stroke="black" d="M650.11,-791.85C643.87,-754.74 629.07,-666.75 621.55,-622.05"/>
<polygon fill="black" stroke="black" points="624.96,-621.22 619.85,-611.94 618.06,-622.38 624.96,-621.22"/>
</g>
<!-- hv&#45;&gt;sk -->
<g id="edge16" class="edge">
<title>hv&#45;&gt;sk</title>
<path fill="none" stroke="black" d="M647.16,-864.41C646.3,-856.51 646.05,-846.85 646.41,-837.94"/>
<polygon fill="black" stroke="black" points="649.9,-838.18 647.12,-827.96 642.92,-837.68 649.9,-838.18"/>
</g>
<!-- hv&#45;&gt;kr -->
<g id="edge17" class="edge">
<title>hv&#45;&gt;kr</title>
<path fill="none" stroke="black" d="M641.01,-865.8C621.5,-841.06 582.71,-791.88 559.59,-762.57"/>
<polygon fill="black" stroke="black" points="562.18,-760.2 553.24,-754.52 556.68,-764.54 562.18,-760.2"/>
</g>
<!-- kr&#45;&gt;rg -->
<g id="edge38" class="edge">
<title>kr&#45;&gt;rg</title>
<path fill="none" stroke="black" d="M549.81,-720.76C554.42,-712.28 560.16,-701.71 565.32,-692.2"/>
<polygon fill="black" stroke="black" points="568.54,-693.61 570.23,-683.15 562.39,-690.27 568.54,-693.61"/>
</g>
<!-- db&#45;&gt;zv -->
<g id="edge18" class="edge">
<title>db&#45;&gt;zv</title>
<path fill="none" stroke="black" d="M232.89,-323.86C236.7,-334.12 241.06,-347.59 243,-360 254.76,-435.16 229.49,-523.82 214.7,-566.89"/>
<polygon fill="black" stroke="black" points="211.4,-565.75 211.37,-576.34 218,-568.07 211.4,-565.75"/>
</g>
<!-- zz -->
<g id="node25" class="node">
<title>zz</title>
<ellipse fill="none" stroke="black" cx="226" cy="-234" rx="27" ry="18"/>
<text text-anchor="middle" x="226" y="-230.3" font-family="Times,serif" font-size="14.00">zz</text>
</g>
<!-- db&#45;&gt;zz -->
<g id="edge19" class="edge">
<title>db&#45;&gt;zz</title>
<path fill="none" stroke="black" d="M226,-287.7C226,-279.98 226,-270.71 226,-262.11"/>
<polygon fill="black" stroke="black" points="229.5,-262.1 226,-252.1 222.5,-262.1 229.5,-262.1"/>
</g>
<!-- zz&#45;&gt;zv -->
<g id="edge72" class="edge">
<title>zz&#45;&gt;zv</title>
<path fill="none" stroke="black" d="M239.92,-249.84C261.35,-274.32 300,-325.57 300,-377 300,-451 300,-451 300,-451 300,-501.48 258.01,-547.61 229.86,-572.85"/>
<polygon fill="black" stroke="black" points="227.23,-570.5 221.98,-579.7 231.83,-575.78 227.23,-570.5"/>
</g>
<!-- px -->
<g id="node57" class="node">
<title>px</title>
<ellipse fill="none" stroke="black" cx="93" cy="-162" rx="27" ry="18"/>
<text text-anchor="middle" x="93" y="-158.3" font-family="Times,serif" font-size="14.00">px</text>
</g>
<!-- zz&#45;&gt;px -->
<g id="edge71" class="edge">
<title>zz&#45;&gt;px</title>
<path fill="none" stroke="black" d="M205.51,-222.22C183.41,-210.59 148.02,-191.96 122.84,-178.7"/>
<polygon fill="black" stroke="black" points="124.21,-175.47 113.73,-173.91 120.95,-181.67 124.21,-175.47"/>
</g>
<!-- rg&#45;&gt;zn -->
<g id="edge103" class="edge">
<title>rg&#45;&gt;zn</title>
<path fill="none" stroke="black" d="M587.81,-648.76C592.42,-640.28 598.16,-629.71 603.32,-620.2"/>
<polygon fill="black" stroke="black" points="606.54,-621.61 608.23,-611.15 600.39,-618.27 606.54,-621.61"/>
</g>
<!-- np -->
<g id="node54" class="node">
<title>np</title>
<ellipse fill="none" stroke="black" cx="750" cy="-234" rx="27" ry="18"/>
<text text-anchor="middle" x="750" y="-230.3" font-family="Times,serif" font-size="14.00">np</text>
</g>
<!-- hh&#45;&gt;np -->
<g id="edge83" class="edge">
<title>hh&#45;&gt;np</title>
<path fill="none" stroke="black" d="M735.6,-288.05C737.75,-280.14 740.35,-270.54 742.76,-261.69"/>
<polygon fill="black" stroke="black" points="746.2,-262.36 745.44,-251.79 739.45,-260.52 746.2,-262.36"/>
</g>
<!-- zl&#45;&gt;hh -->
<g id="edge70" class="edge">
<title>zl&#45;&gt;hh</title>
<path fill="none" stroke="black" d="M686.37,-361.81C693.91,-352.55 703.7,-340.52 712.19,-330.09"/>
<polygon fill="black" stroke="black" points="715.06,-332.12 718.66,-322.16 709.63,-327.7 715.06,-332.12"/>
</g>
<!-- mm -->
<g id="node48" class="node">
<title>mm</title>
<ellipse fill="none" stroke="black" cx="655" cy="-522" rx="27" ry="18"/>
<text text-anchor="middle" x="655" y="-518.3" font-family="Times,serif" font-size="14.00">mm</text>
</g>
<!-- zn&#45;&gt;mm -->
<g id="edge63" class="edge">
<title>zn&#45;&gt;mm</title>
<path fill="none" stroke="black" d="M625.81,-576.76C630.42,-568.28 636.16,-557.71 641.32,-548.2"/>
<polygon fill="black" stroke="black" points="644.54,-549.61 646.23,-539.15 638.39,-546.27 644.54,-549.61"/>
</g>
<!-- tc&#45;&gt;jz -->
<g id="edge27" class="edge">
<title>tc&#45;&gt;jz</title>
<path fill="none" stroke="black" d="M1608,-215.7C1608,-207.98 1608,-198.71 1608,-190.11"/>
<polygon fill="black" stroke="black" points="1611.5,-190.1 1608,-180.1 1604.5,-190.1 1611.5,-190.1"/>
</g>
<!-- dj -->
<g id="node31" class="node">
<title>dj</title>
<ellipse fill="none" stroke="black" cx="1703" cy="-522" rx="27" ry="18"/>
<text text-anchor="middle" x="1703" y="-518.3" font-family="Times,serif" font-size="14.00">dj</text>
</g>
<!-- dj&#45;&gt;pl -->
<g id="edge29" class="edge">
<title>dj&#45;&gt;pl</title>
<path fill="none" stroke="black" d="M1689.25,-537.93C1681.04,-547.9 1671.38,-561.75 1667,-576 1644.92,-647.8 1654.87,-738.03 1662,-782.17"/>
<polygon fill="black" stroke="black" points="1658.57,-782.84 1663.69,-792.12 1665.47,-781.67 1658.57,-782.84"/>
</g>
<!-- ts -->
<g id="node32" class="node">
<title>ts</title>
<ellipse fill="none" stroke="black" cx="1731" cy="-450" rx="27" ry="18"/>
<text text-anchor="middle" x="1731" y="-446.3" font-family="Times,serif" font-size="14.00">ts</text>
</g>
<!-- dj&#45;&gt;ts -->
<g id="edge28" class="edge">
<title>dj&#45;&gt;ts</title>
<path fill="none" stroke="black" d="M1709.64,-504.41C1712.91,-496.22 1716.94,-486.14 1720.62,-476.95"/>
<polygon fill="black" stroke="black" points="1723.95,-478.05 1724.41,-467.47 1717.45,-475.45 1723.95,-478.05"/>
</g>
<!-- ts&#45;&gt;pl -->
<g id="edge42" class="edge">
<title>ts&#45;&gt;pl</title>
<path fill="none" stroke="black" d="M1734.11,-468.04C1738.99,-497.55 1747.1,-560.01 1739,-612 1728.65,-678.38 1718.09,-693.67 1693,-756 1689.33,-765.12 1684.76,-774.84 1680.48,-783.44"/>
<polygon fill="black" stroke="black" points="1677.25,-782.08 1675.84,-792.58 1683.49,-785.25 1677.25,-782.08"/>
</g>
<!-- ts&#45;&gt;bs -->
<g id="edge43" class="edge">
<title>ts&#45;&gt;bs</title>
<path fill="none" stroke="black" d="M1731,-431.7C1731,-423.98 1731,-414.71 1731,-406.11"/>
<polygon fill="black" stroke="black" points="1734.5,-406.1 1731,-396.1 1727.5,-406.1 1734.5,-406.1"/>
</g>
<!-- jk -->
<g id="node33" class="node">
<title>jk</title>
<ellipse fill="none" stroke="black" cx="1348" cy="-90" rx="27" ry="18"/>
<text text-anchor="middle" x="1348" y="-86.3" font-family="Times,serif" font-size="14.00">jk</text>
</g>
<!-- jk&#45;&gt;sd -->
<g id="edge30" class="edge">
<title>jk&#45;&gt;sd</title>
<path fill="none" stroke="black" d="M1348,-108.05C1348,-134.71 1348,-187.89 1348,-233 1348,-595 1348,-595 1348,-595 1348,-694.42 1231.19,-765.68 1173.92,-794.65"/>
<polygon fill="black" stroke="black" points="1172.35,-791.52 1164.94,-799.09 1175.45,-797.79 1172.35,-791.52"/>
</g>
<!-- vh -->
<g id="node34" class="node">
<title>vh</title>
<ellipse fill="none" stroke="black" cx="1413" cy="-18" rx="27" ry="18"/>
<text text-anchor="middle" x="1413" y="-14.3" font-family="Times,serif" font-size="14.00">vh</text>
</g>
<!-- jk&#45;&gt;vh -->
<g id="edge31" class="edge">
<title>jk&#45;&gt;vh</title>
<path fill="none" stroke="black" d="M1361.78,-74.15C1370.66,-64.6 1382.36,-51.99 1392.34,-41.25"/>
<polygon fill="black" stroke="black" points="1395,-43.53 1399.24,-33.82 1389.87,-38.77 1395,-43.53"/>
</g>
<!-- vh&#45;&gt;sd -->
<g id="edge36" class="edge">
<title>vh&#45;&gt;sd</title>
<path fill="none" stroke="black" d="M1421.68,-35.09C1434.75,-60.88 1458,-113.42 1458,-161 1458,-667 1458,-667 1458,-667 1458,-707.45 1468.07,-727.88 1439,-756 1402.6,-791.22 1251.32,-803.5 1180.23,-807.38"/>
<polygon fill="black" stroke="black" points="1179.75,-803.9 1169.94,-807.91 1180.11,-810.89 1179.75,-803.9"/>
</g>
<!-- dp&#45;&gt;sd -->
<g id="edge34" class="edge">
<title>dp&#45;&gt;sd</title>
<path fill="none" stroke="black" d="M1038.89,-251.7C1028.4,-277.89 1010,-330.46 1010,-377 1010,-667 1010,-667 1010,-667 1010,-726.73 1073.45,-771.69 1112.7,-793.79"/>
<polygon fill="black" stroke="black" points="1111.18,-796.95 1121.63,-798.66 1114.53,-790.8 1111.18,-796.95"/>
</g>
<!-- cc -->
<g id="node36" class="node">
<title>cc</title>
<ellipse fill="none" stroke="black" cx="1046" cy="-162" rx="27" ry="18"/>
<text text-anchor="middle" x="1046" y="-158.3" font-family="Times,serif" font-size="14.00">cc</text>
</g>
<!-- dp&#45;&gt;cc -->
<g id="edge35" class="edge">
<title>dp&#45;&gt;cc</title>
<path fill="none" stroke="black" d="M1046,-215.7C1046,-207.98 1046,-198.71 1046,-190.11"/>
<polygon fill="black" stroke="black" points="1049.5,-190.1 1046,-180.1 1042.5,-190.1 1049.5,-190.1"/>
</g>
<!-- cc&#45;&gt;sd -->
<g id="edge97" class="edge">
<title>cc&#45;&gt;sd</title>
<path fill="none" stroke="black" d="M1032.08,-177.84C1010.65,-202.32 972,-253.57 972,-305 972,-667 972,-667 972,-667 972,-713.04 990.63,-725.37 1025,-756 1048.98,-777.37 1082.99,-791.4 1108.35,-799.63"/>
<polygon fill="black" stroke="black" points="1107.35,-802.99 1117.94,-802.6 1109.42,-796.3 1107.35,-802.99"/>
</g>
<!-- cc&#45;&gt;jk -->
<g id="edge98" class="edge">
<title>cc&#45;&gt;jk</title>
<path fill="none" stroke="black" d="M1071.23,-155.15C1124.97,-142.7 1250.84,-113.52 1312.59,-99.21"/>
<polygon fill="black" stroke="black" points="1313.68,-102.55 1322.63,-96.88 1312.1,-95.73 1313.68,-102.55"/>
</g>
<!-- lz&#45;&gt;cs -->
<g id="edge37" class="edge">
<title>lz&#45;&gt;cs</title>
<path fill="none" stroke="black" d="M917.19,-647.91C917.25,-629.97 916.97,-600.96 915,-576 912.31,-541.99 906.6,-503.1 902.54,-477.85"/>
<polygon fill="black" stroke="black" points="905.99,-477.22 900.92,-467.92 899.08,-478.35 905.99,-477.22"/>
</g>
<!-- bf&#45;&gt;pl -->
<g id="edge99" class="edge">
<title>bf&#45;&gt;pl</title>
<path fill="none" stroke="black" d="M1517.67,-35.85C1509.8,-62.25 1496,-115.08 1496,-161 1496,-667 1496,-667 1496,-667 1496,-713.04 1514.63,-725.37 1549,-756 1572.98,-777.37 1606.99,-791.4 1632.35,-799.63"/>
<polygon fill="black" stroke="black" points="1631.35,-802.99 1641.94,-802.6 1633.42,-796.3 1631.35,-802.99"/>
</g>
<!-- kz&#45;&gt;sk -->
<g id="edge41" class="edge">
<title>kz&#45;&gt;sk</title>
<path fill="none" stroke="black" d="M432.47,-35.84C424.31,-62.21 410,-115.02 410,-161 410,-667 410,-667 410,-667 410,-710.55 417.63,-728.02 451,-756 498.19,-795.58 571.71,-805.97 615.82,-808.48"/>
<polygon fill="black" stroke="black" points="615.69,-811.98 625.84,-808.94 616.01,-804.98 615.69,-811.98"/>
</g>
<!-- vg -->
<g id="node45" class="node">
<title>vg</title>
<ellipse fill="none" stroke="black" cx="1627" cy="-306" rx="27" ry="18"/>
<text text-anchor="middle" x="1627" y="-302.3" font-family="Times,serif" font-size="14.00">vg</text>
</g>
<!-- bs&#45;&gt;vg -->
<g id="edge49" class="edge">
<title>bs&#45;&gt;vg</title>
<path fill="none" stroke="black" d="M1712.41,-364.49C1696.14,-353.54 1672.31,-337.49 1653.95,-325.14"/>
<polygon fill="black" stroke="black" points="1655.68,-322.09 1645.43,-319.41 1651.77,-327.89 1655.68,-322.09"/>
</g>
<!-- gr&#45;&gt;zv -->
<g id="edge45" class="edge">
<title>gr&#45;&gt;zv</title>
<path fill="none" stroke="black" d="M173.27,-467.82C179.43,-492.15 190.9,-537.4 198.23,-566.31"/>
<polygon fill="black" stroke="black" points="194.88,-567.32 200.73,-576.15 201.66,-565.6 194.88,-567.32"/>
</g>
<!-- gr&#45;&gt;ns -->
<g id="edge44" class="edge">
<title>gr&#45;&gt;ns</title>
<path fill="none" stroke="black" d="M177.81,-432.76C182.42,-424.28 188.16,-413.71 193.32,-404.2"/>
<polygon fill="black" stroke="black" points="196.54,-405.61 198.23,-395.15 190.39,-402.27 196.54,-405.61"/>
</g>
<!-- kc&#45;&gt;sd -->
<g id="edge46" class="edge">
<title>kc&#45;&gt;sd</title>
<path fill="none" stroke="black" d="M1137.16,-864.41C1136.3,-856.51 1136.05,-846.85 1136.41,-837.94"/>
<polygon fill="black" stroke="black" points="1139.9,-838.18 1137.12,-827.96 1132.92,-837.68 1139.9,-838.18"/>
</g>
<!-- kc&#45;&gt;kf -->
<g id="edge47" class="edge">
<title>kc&#45;&gt;kf</title>
<path fill="none" stroke="black" d="M1160.35,-867.9C1193.65,-842.75 1266.64,-787.61 1305.5,-758.26"/>
<polygon fill="black" stroke="black" points="1307.82,-760.89 1313.69,-752.07 1303.6,-755.31 1307.82,-760.89"/>
</g>
<!-- kf&#45;&gt;dh -->
<g id="edge84" class="edge">
<title>kf&#45;&gt;dh</title>
<path fill="none" stroke="black" d="M1315.62,-722.83C1304.8,-712.87 1290.14,-699.37 1277.95,-688.14"/>
<polygon fill="black" stroke="black" points="1280.08,-685.34 1270.36,-681.14 1275.34,-690.49 1280.08,-685.34"/>
</g>
<!-- jd -->
<g id="node44" class="node">
<title>jd</title>
<ellipse fill="none" stroke="black" cx="28" cy="-18" rx="27" ry="18"/>
<text text-anchor="middle" x="28" y="-14.3" font-family="Times,serif" font-size="14.00">jd</text>
</g>
<!-- jd&#45;&gt;zv -->
<g id="edge48" class="edge">
<title>jd&#45;&gt;zv</title>
<path fill="none" stroke="black" d="M22.47,-35.84C14.31,-62.21 0,-115.02 0,-161 0,-451 0,-451 0,-451 0,-494.93 9.93,-511.08 43,-540 78.48,-571.02 132.52,-583.96 168.29,-589.31"/>
<polygon fill="black" stroke="black" points="167.93,-592.79 178.32,-590.68 168.88,-585.85 167.93,-592.79"/>
</g>
<!-- vg&#45;&gt;pl -->
<g id="edge85" class="edge">
<title>vg&#45;&gt;pl</title>
<path fill="none" stroke="black" d="M1623.64,-323.97C1618.69,-350.52 1610,-403.56 1610,-449 1610,-667 1610,-667 1610,-667 1610,-710.91 1633.77,-757.33 1650.61,-784.7"/>
<polygon fill="black" stroke="black" points="1647.7,-786.65 1656.01,-793.22 1653.61,-782.9 1647.7,-786.65"/>
</g>
<!-- vg&#45;&gt;tc -->
<g id="edge86" class="edge">
<title>vg&#45;&gt;tc</title>
<path fill="none" stroke="black" d="M1622.4,-288.05C1620.25,-280.14 1617.65,-270.54 1615.24,-261.69"/>
<polygon fill="black" stroke="black" points="1618.55,-260.52 1612.56,-251.79 1611.8,-262.36 1618.55,-260.52"/>
</g>
<!-- zk&#45;&gt;rp -->
<g id="edge50" class="edge">
<title>zk&#45;&gt;rp</title>
<path fill="none" stroke="black" d="M1132.19,-432.76C1127.58,-424.28 1121.84,-413.71 1116.68,-404.2"/>
<polygon fill="black" stroke="black" points="1119.61,-402.27 1111.77,-395.15 1113.46,-405.61 1119.61,-402.27"/>
</g>
<!-- vf&#45;&gt;zk -->
<g id="edge51" class="edge">
<title>vf&#45;&gt;zk</title>
<path fill="none" stroke="black" d="M1170.19,-504.76C1165.58,-496.28 1159.84,-485.71 1154.68,-476.2"/>
<polygon fill="black" stroke="black" points="1157.61,-474.27 1149.77,-467.15 1151.46,-477.61 1157.61,-474.27"/>
</g>
<!-- mm&#45;&gt;sk -->
<g id="edge53" class="edge">
<title>mm&#45;&gt;sk</title>
<path fill="none" stroke="black" d="M655.01,-540.25C655.02,-578.88 654.93,-675.3 654,-756 653.9,-764.32 653.75,-773.37 653.59,-781.6"/>
<polygon fill="black" stroke="black" points="650.09,-781.75 653.39,-791.82 657.09,-781.89 650.09,-781.75"/>
</g>
<!-- ms -->
<g id="node49" class="node">
<title>ms</title>
<ellipse fill="none" stroke="black" cx="674" cy="-450" rx="27" ry="18"/>
<text text-anchor="middle" x="674" y="-446.3" font-family="Times,serif" font-size="14.00">ms</text>
</g>
<!-- mm&#45;&gt;ms -->
<g id="edge52" class="edge">
<title>mm&#45;&gt;ms</title>
<path fill="none" stroke="black" d="M659.6,-504.05C661.75,-496.14 664.35,-486.54 666.76,-477.69"/>
<polygon fill="black" stroke="black" points="670.2,-478.36 669.44,-467.79 663.45,-476.52 670.2,-478.36"/>
</g>
<!-- ms&#45;&gt;sk -->
<g id="edge74" class="edge">
<title>ms&#45;&gt;sk</title>
<path fill="none" stroke="black" d="M681.11,-467.7C691.6,-493.89 710,-546.46 710,-593 710,-667 710,-667 710,-667 710,-710.91 686.23,-757.33 669.39,-784.7"/>
<polygon fill="black" stroke="black" points="666.39,-782.9 663.99,-793.22 672.3,-786.65 666.39,-782.9"/>
</g>
<!-- ms&#45;&gt;zl -->
<g id="edge73" class="edge">
<title>ms&#45;&gt;zl</title>
<path fill="none" stroke="black" d="M674,-431.7C674,-423.98 674,-414.71 674,-406.11"/>
<polygon fill="black" stroke="black" points="677.5,-406.1 674,-396.1 670.5,-406.1 677.5,-406.1"/>
</g>
<!-- qc -->
<g id="node50" class="node">
<title>qc</title>
<ellipse fill="none" stroke="black" cx="1703" cy="-594" rx="27" ry="18"/>
<text text-anchor="middle" x="1703" y="-590.3" font-family="Times,serif" font-size="14.00">qc</text>
</g>
<!-- qc&#45;&gt;pl -->
<g id="edge54" class="edge">
<title>qc&#45;&gt;pl</title>
<path fill="none" stroke="black" d="M1700.15,-611.94C1693.93,-648.92 1679.08,-737.2 1671.55,-781.97"/>
<polygon fill="black" stroke="black" points="1668.09,-781.41 1669.89,-791.85 1675,-782.57 1668.09,-781.41"/>
</g>
<!-- qc&#45;&gt;dj -->
<g id="edge55" class="edge">
<title>qc&#45;&gt;dj</title>
<path fill="none" stroke="black" d="M1703,-575.7C1703,-567.98 1703,-558.71 1703,-550.11"/>
<polygon fill="black" stroke="black" points="1706.5,-550.1 1703,-540.1 1699.5,-550.1 1706.5,-550.1"/>
</g>
<!-- fk&#45;&gt;qc -->
<g id="edge56" class="edge">
<title>fk&#45;&gt;qc</title>
<path fill="none" stroke="black" d="M1763.62,-650.83C1752.8,-640.87 1738.14,-627.37 1725.95,-616.14"/>
<polygon fill="black" stroke="black" points="1728.08,-613.34 1718.36,-609.14 1723.34,-618.49 1728.08,-613.34"/>
</g>
<!-- sn -->
<g id="node52" class="node">
<title>sn</title>
<ellipse fill="none" stroke="black" cx="55" cy="-90" rx="27" ry="18"/>
<text text-anchor="middle" x="55" y="-86.3" font-family="Times,serif" font-size="14.00">sn</text>
</g>
<!-- sn&#45;&gt;zv -->
<g id="edge61" class="edge">
<title>sn&#45;&gt;zv</title>
<path fill="none" stroke="black" d="M51.64,-107.97C46.69,-134.52 38,-187.56 38,-233 38,-451 38,-451 38,-451 38,-493.67 43.83,-509.83 74,-540 99.91,-565.92 140.19,-579.63 169.25,-586.56"/>
<polygon fill="black" stroke="black" points="168.49,-589.98 179.01,-588.74 170.01,-583.15 168.49,-589.98"/>
</g>
<!-- sn&#45;&gt;jd -->
<g id="edge62" class="edge">
<title>sn&#45;&gt;jd</title>
<path fill="none" stroke="black" d="M48.6,-72.41C45.49,-64.34 41.67,-54.43 38.17,-45.35"/>
<polygon fill="black" stroke="black" points="41.4,-44.03 34.54,-35.96 34.87,-46.55 41.4,-44.03"/>
</g>
<!-- ct&#45;&gt;fk -->
<g id="edge64" class="edge">
<title>ct&#45;&gt;fk</title>
<path fill="none" stroke="black" d="M1839.62,-722.83C1828.8,-712.87 1814.14,-699.37 1801.95,-688.14"/>
<polygon fill="black" stroke="black" points="1804.08,-685.34 1794.36,-681.14 1799.34,-690.49 1804.08,-685.34"/>
</g>
<!-- np&#45;&gt;xb -->
<g id="edge66" class="edge">
<title>np&#45;&gt;xb</title>
<path fill="none" stroke="black" d="M750,-215.7C750,-207.98 750,-198.71 750,-190.11"/>
<polygon fill="black" stroke="black" points="753.5,-190.1 750,-180.1 746.5,-190.1 753.5,-190.1"/>
</g>
<!-- np&#45;&gt;sk -->
<g id="edge65" class="edge">
<title>np&#45;&gt;sk</title>
<path fill="none" stroke="black" d="M757.11,-251.7C767.6,-277.89 786,-330.46 786,-377 786,-667 786,-667 786,-667 786,-726.73 722.55,-771.69 683.3,-793.79"/>
<polygon fill="black" stroke="black" points="681.47,-790.8 674.37,-798.66 684.82,-796.95 681.47,-790.8"/>
</g>
<!-- tg&#45;&gt;cs -->
<g id="edge67" class="edge">
<title>tg&#45;&gt;cs</title>
<path fill="none" stroke="black" d="M1395.18,-720.62C1373.48,-677.12 1307.9,-558.28 1215,-504 1167.93,-476.5 1008.05,-460.1 934.98,-453.88"/>
<polygon fill="black" stroke="black" points="935.11,-450.38 924.85,-453.04 934.53,-457.36 935.11,-450.38"/>
</g>
<!-- cm&#45;&gt;zv -->
<g id="edge95" class="edge">
<title>cm&#45;&gt;zv</title>
<path fill="none" stroke="black" d="M145.98,-650.83C156.51,-640.87 170.78,-627.37 182.66,-616.14"/>
<polygon fill="black" stroke="black" points="185.19,-618.56 190.05,-609.14 180.38,-613.47 185.19,-618.56"/>
</g>
<!-- cm&#45;&gt;hl -->
<g id="edge96" class="edge">
<title>cm&#45;&gt;hl</title>
<path fill="none" stroke="black" d="M131,-647.87C131,-623.67 131,-579.21 131,-550.39"/>
<polygon fill="black" stroke="black" points="134.5,-550.19 131,-540.19 127.5,-550.19 134.5,-550.19"/>
</g>
<!-- px&#45;&gt;zv -->
<g id="edge76" class="edge">
<title>px&#45;&gt;zv</title>
<path fill="none" stroke="black" d="M89.64,-179.97C84.69,-206.52 76,-259.56 76,-305 76,-451 76,-451 76,-451 76,-491.45 70.01,-508.2 95,-540 113.53,-563.59 145.19,-577.29 169.79,-584.83"/>
<polygon fill="black" stroke="black" points="168.93,-588.23 179.51,-587.61 170.86,-581.49 168.93,-588.23"/>
</g>
<!-- px&#45;&gt;sn -->
<g id="edge77" class="edge">
<title>px&#45;&gt;sn</title>
<path fill="none" stroke="black" d="M84.19,-144.76C79.58,-136.28 73.84,-125.71 68.68,-116.2"/>
<polygon fill="black" stroke="black" points="71.61,-114.27 63.77,-107.15 65.46,-117.61 71.61,-114.27"/>
</g>
<!-- bv&#45;&gt;pl -->
<g id="edge88" class="edge">
<title>bv&#45;&gt;pl</title>
<path fill="none" stroke="black" d="M1661.16,-864.41C1660.3,-856.51 1660.05,-846.85 1660.41,-837.94"/>
<polygon fill="black" stroke="black" points="1663.9,-838.18 1661.12,-827.96 1656.92,-837.68 1663.9,-838.18"/>
</g>
<!-- bv&#45;&gt;ct -->
<g id="edge87" class="edge">
<title>bv&#45;&gt;ct</title>
<path fill="none" stroke="black" d="M1684.35,-867.9C1717.65,-842.75 1790.64,-787.61 1829.5,-758.26"/>
<polygon fill="black" stroke="black" points="1831.82,-760.89 1837.69,-752.07 1827.6,-755.31 1831.82,-760.89"/>
</g>
</g>
</svg>
